<svg width="167" height="167" viewBox="0 0 167 167" fill="none" xmlns="http://www.w3.org/2000/svg">
<path d="M162.768 161.317C162.771 159.618 163.976 158.34 164.372 157.93C164.769 157.521 165.974 156.243 165.977 154.543C165.98 152.844 164.781 151.557 164.393 151.153C163.995 150.738 162.797 149.451 162.8 147.752C162.802 146.062 164.007 144.774 164.404 144.365C164.8 143.955 166.005 142.677 166.008 140.978C166.011 139.278 164.813 137.992 164.414 137.586C164.016 137.171 162.828 135.886 162.831 134.186C162.833 132.497 164.029 131.208 164.435 130.799C164.831 130.399 166.036 129.112 166.039 127.412C166.041 125.723 164.844 124.426 164.445 124.021C164.047 123.616 162.859 122.32 162.863 120.621C162.865 118.931 164.06 117.642 164.467 117.234C164.862 116.834 166.058 115.545 166.061 113.846C166.073 112.157 164.876 110.861 164.477 110.455C164.078 110.05 162.881 108.754 162.883 107.064C162.896 105.365 164.092 104.077 164.487 103.677C164.893 103.268 166.089 101.98 166.092 100.28C166.094 98.5905 164.907 97.2951 164.508 96.8898C164.11 96.4845 162.912 95.188 162.914 93.4984C162.917 91.7988 164.123 90.5112 164.518 90.1114C164.925 89.7028 166.121 88.4141 166.123 86.7245C166.126 85.025 164.938 83.7295 164.54 83.3242C164.141 82.9189 162.944 81.6224 162.946 79.9328C162.949 78.2333 164.154 76.9456 164.55 76.5459C164.946 76.1362 166.152 74.8486 166.154 73.159C166.157 71.4594 164.959 70.1729 164.561 69.7576C164.162 69.3523 162.974 68.0668 162.977 66.3673C162.98 64.6677 164.175 63.3889 164.581 62.9803C164.978 62.5707 166.183 61.283 166.185 59.5934C166.188 57.8939 164.99 56.6073 164.592 56.1921C164.194 55.7868 163.005 54.5013 163.008 52.8017C163.01 51.1121 164.206 49.8234 164.613 49.4148C165.009 49.0051 166.204 47.7264 166.217 46.0279C166.22 44.3283 165.021 43.0418 164.623 42.6365C164.225 42.2212 163.027 40.9346 163.04 39.2362C163.042 37.5466 164.238 36.2579 164.634 35.8482C165.039 35.4495 166.235 34.1608 166.238 32.4613C166.24 30.7716 165.053 29.4762 164.654 29.0709C164.255 28.6656 163.058 27.3691 163.061 25.6695C163.063 23.9799 164.269 22.6923 164.665 22.2826C165.071 21.884 166.266 20.5953 166.27 18.8957C166.272 17.2061 165.084 15.9107 164.686 15.5054C164.287 15.1001 163.09 13.8036 163.092 12.1139C163.095 10.4144 164.3 9.12677 164.697 8.71709C165.092 8.31735 166.298 7.02973 166.301 5.33017C166.303 3.64056 165.106 2.34404 164.707 1.93874C164.302 2.33741 163.015 3.5358 161.316 3.53271C159.627 3.52076 158.338 2.32499 157.929 1.92856C157.52 1.52218 156.241 0.327492 154.542 0.324407C152.842 0.321323 151.557 1.50977 151.151 1.90843C150.736 2.30602 149.45 3.50441 147.75 3.50133C146.06 3.49932 144.773 2.29361 144.363 1.89717C143.964 1.49187 142.676 0.296103 140.976 0.293019C139.287 0.291011 137.991 1.47838 137.586 1.87705C137.171 2.27463 135.884 3.47302 134.184 3.46994C132.495 3.46793 131.207 2.26222 130.798 1.86578C130.398 1.47043 129.11 0.264716 127.411 0.261631C125.721 0.259623 124.425 1.45694 124.019 1.8556C123.614 2.25426 122.318 3.44163 120.629 3.43963C118.929 3.43654 117.641 2.24077 117.232 1.8344C116.832 1.43904 115.545 0.233327 113.845 0.230243C112.155 0.228235 110.859 1.42555 110.454 1.82421C110.048 2.22287 108.753 3.41024 107.063 3.40824C105.364 3.40515 104.075 2.20938 103.676 1.80408C103.267 1.40765 101.978 0.211881 100.289 0.199932C98.5899 0.196847 97.2934 1.39416 96.8881 1.79282C96.4828 2.19149 95.1863 3.3888 93.4978 3.37685C91.7982 3.37376 90.5095 2.178 90.1098 1.78264C89.7012 1.37626 88.4125 0.180493 86.7229 0.178485C85.0233 0.1754 83.7378 1.36385 83.3226 1.76143C82.9173 2.1601 81.6307 3.35849 79.9312 3.3554C78.2316 3.35232 76.9539 2.14769 76.5442 1.75125C76.1356 1.34487 74.8469 0.149104 73.1573 0.147096C71.4578 0.144012 70.1723 1.33246 69.757 1.73005C69.3517 2.12871 68.0652 3.3271 66.3656 3.32401C64.666 3.32093 63.3884 2.1163 62.9787 1.71986C62.569 1.32343 61.2913 0.118793 59.5918 0.115708C57.8922 0.112624 56.6057 1.31101 56.2014 1.69973C55.7862 2.09732 54.4996 3.29571 52.8001 3.29263C51.1104 3.29062 49.8228 2.08491 49.4131 1.68847C49.0035 1.29204 47.7258 0.0874054 46.0262 0.0843206C44.3267 0.0812359 43.0401 1.27963 42.6348 1.67829C42.2196 2.07587 40.9341 3.26432 39.2345 3.26124C37.5449 3.25923 36.2562 2.06346 35.8476 1.65709C35.4479 1.26173 34.1602 0.0560166 32.4607 0.0529318C30.7711 0.0509243 29.4746 1.24824 29.0693 1.6469C28.664 2.04556 27.3685 3.23294 25.669 3.22985C23.9794 3.22784 22.6907 2.03207 22.2821 1.6257C21.8823 1.23034 20.5936 0.0345707 18.8941 0.031486C17.2055 0.0195366 15.909 1.21685 15.5037 1.61551C15.0984 2.01418 13.8019 3.21149 12.1123 3.20948C10.4138 3.19645 9.12511 2.00069 8.72537 1.60533C8.31677 1.19895 7.02807 0.00318286 5.32852 9.81388e-05C3.6389 -0.00190943 2.34347 1.18546 1.93817 1.58412C2.33683 1.98942 3.53414 3.28594 3.53106 4.98549C3.51911 6.67403 2.32334 7.96272 1.92691 8.37241C1.52161 8.77107 0.325837 10.0598 0.322753 11.7593C0.320745 13.4489 1.50812 14.7444 1.90678 15.1497C2.30544 15.555 3.50276 16.8515 3.50075 18.5411C3.49766 20.2407 2.29195 21.5283 1.89552 21.938C1.49022 22.3366 0.294449 23.6253 0.291365 25.3249C0.289357 27.0145 1.47673 28.3099 1.87539 28.7152C2.27405 29.1205 3.47137 30.417 3.46936 32.1066C3.46628 33.8062 2.26056 35.0938 1.86521 35.4936C1.46877 35.9032 0.263061 37.1909 0.261054 38.8805C0.257969 40.58 1.45528 41.8765 1.85394 42.2818C2.25261 42.6871 3.43998 43.9826 3.43797 45.6722C3.43489 47.3717 2.23912 48.6604 1.83382 49.0591C1.43738 49.4688 0.231673 50.7564 0.229666 52.446C0.226581 54.1456 1.42497 55.4321 1.82256 55.8474C2.22122 56.2527 3.40967 57.5382 3.40658 59.2377C3.4035 60.9373 2.20881 62.216 1.80243 62.6247C1.40599 63.0343 0.210227 64.323 0.198277 66.0116C0.195193 67.7111 1.39358 68.9977 1.79117 69.4129C2.18983 69.8182 3.38822 71.1048 3.37519 72.8033C3.37211 74.5028 2.17742 75.7816 1.78098 76.1913C1.37461 76.5999 0.179915 77.8786 0.176831 79.5782C0.173746 81.2777 1.36219 82.5632 1.76086 82.9685C2.15844 83.3838 3.35683 84.6703 3.35375 86.3699C3.35174 88.0595 2.14603 89.3471 1.7496 89.7568C1.34322 90.1654 0.148527 91.4442 0.145442 93.1437C0.142357 94.8433 1.33081 96.1288 1.72947 96.5341C2.12706 96.9493 3.32545 98.2359 3.32236 99.9354C3.32035 101.625 2.11464 102.913 1.71821 103.322C1.32285 103.722 0.117139 105.01 0.114054 106.709C0.112047 108.399 1.30936 109.695 1.70802 110.101C2.10668 110.506 3.29406 111.801 3.29097 113.501C3.28896 115.191 2.0932 116.479 1.68682 116.888C1.29146 117.288 0.0857505 118.575 0.0826657 120.275C0.0806582 121.964 1.27797 123.261 1.67663 123.666C2.0753 124.072 3.26267 125.367 3.26066 127.057C3.25758 128.756 2.06181 130.045 1.65651 130.444C1.26007 130.853 0.0643045 132.142 0.051278 133.84C0.0492704 135.53 1.24658 136.827 1.64525 137.232C2.04391 137.637 3.23128 138.933 3.22927 140.622C3.22619 142.322 2.03042 143.61 1.62512 144.009C1.22869 144.419 0.0329156 145.707 0.0309081 147.397C0.0178815 149.096 1.2152 150.392 1.61386 150.797C2.01252 151.203 3.20984 152.499 3.20783 154.189C3.1948 155.887 1.99903 157.176 1.60367 157.576C1.1973 157.984 0.0015288 159.273 -0.000478769 160.963C-0.00356349 162.662 1.18488 163.948 1.58247 164.363C1.99771 163.965 3.28428 162.767 4.98384 162.77C6.67345 162.772 7.96107 163.978 8.37075 164.374C8.77049 164.77 10.0581 165.975 11.7577 165.978C13.4473 165.98 14.7438 164.783 15.1491 164.384C15.5544 163.986 16.8498 162.798 18.5494 162.801C20.239 162.803 21.5277 163.999 21.9363 164.406C22.336 164.801 23.6237 166.007 25.3232 166.01C27.0128 166.012 28.3093 164.814 28.7146 164.416C29.1199 164.017 30.4154 162.83 32.105 162.832C33.8045 162.835 35.0932 164.031 35.4919 164.436C35.9016 164.832 37.1903 166.028 38.8788 166.04C40.5784 166.043 41.8749 164.846 42.2802 164.447C42.6855 164.048 43.9809 162.861 45.6705 162.863C47.3701 162.866 48.6588 164.062 49.0585 164.457C49.4671 164.864 50.7558 166.059 52.4454 166.061C54.145 166.065 55.4305 164.876 55.8457 164.479C56.251 164.08 57.5475 162.883 59.2372 162.885C60.9356 162.898 62.2144 164.092 62.6241 164.489C63.0327 164.895 64.3214 166.091 66.011 166.093C67.7105 166.096 68.996 164.907 69.4113 164.51C69.8166 164.111 71.1031 162.913 72.8027 162.916C74.5023 162.919 75.7799 164.124 76.1896 164.52C76.5982 164.926 77.877 166.121 79.5765 166.124C81.2761 166.127 82.5616 164.939 82.9669 164.54C83.3821 164.143 84.6687 162.944 86.3682 162.947C88.0579 162.949 89.3455 164.155 89.7552 164.551C90.1648 164.948 91.4425 166.153 93.1421 166.156C94.8416 166.159 96.1282 164.96 96.5335 164.562C96.9487 164.164 98.2342 162.976 99.9338 162.979C101.623 162.981 102.912 164.176 103.321 164.583C103.72 164.978 105.008 166.184 106.708 166.187C108.397 166.189 109.694 164.992 110.099 164.593C110.504 164.194 111.8 163.007 113.499 163.01C115.189 163.012 116.478 164.208 116.886 164.614C117.286 165.01 118.575 166.205 120.274 166.208C121.963 166.22 123.259 165.023 123.665 164.624C124.07 164.226 125.366 163.028 127.055 163.04C128.754 163.043 130.043 164.239 130.453 164.636C130.852 165.041 132.14 166.237 133.84 166.24C135.529 166.242 136.825 165.054 137.23 164.656C137.635 164.257 138.932 163.06 140.622 163.062C142.321 163.065 143.609 164.271 144.008 164.666C144.417 165.072 145.706 166.268 147.395 166.27C149.095 166.273 150.39 165.086 150.796 164.687C151.201 164.289 152.497 163.091 154.187 163.093C155.887 163.096 157.174 164.302 157.574 164.697C157.984 165.094 159.271 166.3 160.961 166.302C162.66 166.305 163.947 165.106 164.362 164.709C163.964 164.303 162.765 163.017 162.768 161.317ZM8.69593 157.288L9.01311 8.69759L157.603 9.01476L157.286 157.605L8.69593 157.288Z" fill="white"/>
</svg>
